<svg width="67" height="70" viewBox="0 0 67 70" fill="none"
    xmlns="http://www.w3.org/2000/svg">
    <path d="M45.6638 5.40316C43.7941 4.24868 41.3091 3.42082 38.0474 3.08476C37.1554 2.9776 36.2499 2.91699 35.3308 2.91699C35.2486 2.91699 35.1678 2.92265 35.0859 2.92358C34.9382 2.92183 34.7953 2.91699 34.6451 2.91699C13.6772 2.91699 10.4193 18.882 9.91506 23.5384C9.67926 25.7148 6.90527 45.0498 6.90527 45.0498H14.1279V60.4294H28.6501L28.6135 67.0837H47.4294V49.9669C54.4676 45.5723 59.1929 37.4664 59.1929 28.1875C59.1929 18.1513 53.6683 9.48177 45.6638 5.40316ZM39.4892 34.195V29.6263L48.8464 24.9339L39.4892 20.3643V20.3619L37.8718 19.572L31.6074 34.0571L30.7094 36.1461L27.2056 34.3507L14.2675 27.8946V23.6649L28.4348 16.5955V21.1642L19.077 25.8567L27.0916 29.7703L30.0691 31.1808L35.5637 18.4449L37.5186 19.3996L35.5536 18.44L37.1865 14.6845L39.4739 15.8319H39.4892V15.8264L53.6558 22.8959V27.1255L39.4892 34.195Z" fill="url(#paint0_linear_246_375)"/>
    <path d="M39.4844 15.8372L42.4798 17.3398L39.4894 15.8397V15.832L39.4866 15.8384L39.4844 15.8372Z" fill="#011A38"/>
    <path d="M39.4893 15.8262V15.8317V15.8394L42.4797 17.3395L48.8199 24.9183L39.4893 20.3617V20.3641L48.8464 24.9336L39.4893 29.626V34.1948L53.6558 27.1253V22.8957L39.4893 15.8262Z" fill="black"/>
    <path d="M39.4821 15.8354L39.4839 15.832H39.4736L39.4805 15.8348L39.4821 15.8354Z" fill="#ABABAB"/>
    <path d="M26.2524 29.3729L27.0917 29.7705L19.0771 25.8569L28.4349 21.1645V16.5957L14.2676 23.6652V27.8948L27.2057 34.351L22.4859 31.9324L26.2524 29.3729Z" fill="white"/>
    <path d="M42.4797 17.3398L39.4843 15.8371L39.4739 15.832L37.1866 14.6846L35.5537 18.44L37.5187 19.3997L37.8718 19.5721L39.4893 20.362L48.82 24.9186L42.4797 17.3398Z" fill="white"/>
    <path d="M37.5186 19.4L35.5636 18.4453L30.0691 31.1812L27.0916 29.7706L26.2523 29.3731L22.4858 31.9326L27.2056 34.3511L30.7094 36.1465L31.6074 34.0575L37.8717 19.5724L37.5186 19.4Z" fill="black"/>
    <defs>
        <linearGradient id="paint0_linear_246_375" x1="7.08163" y1="35.0003" x2="61.6163" y2="80.6436" gradientUnits="userSpaceOnUse">
            <stop stop-color="#21209C"/>
            <stop offset="0.466667" stop-color="#FDB827" stop-opacity="0.392507"/>
            <stop offset="0.998639" stop-color="#FDB827" stop-opacity="0"/>
        </linearGradient>
    </defs>
</svg>
