<svg width="33" height="32" viewBox="0 0 33 32" fill="none" xmlns="http://www.w3.org/2000/svg">
<path d="M4.5 3V29H15.5V25H17.5V29H28.5V3H4.5ZM6.5 5H26.5V27H19.5V23H13.5V27H6.5V5ZM8.5 7V9H12.5V7H8.5ZM14.5 7V9H18.5V7H14.5ZM20.5 7V9H24.5V7H20.5ZM8.5 11V13H12.5V11H8.5ZM14.5 11V13H18.5V11H14.5ZM20.5 11V13H24.5V11H20.5ZM8.5 15V17H12.5V15H8.5ZM14.5 15V17H18.5V15H14.5ZM20.5 15V17H24.5V15H20.5ZM8.5 19V21H12.5V19H8.5ZM14.5 19V21H18.5V19H14.5ZM20.5 19V21H24.5V19H20.5ZM8.5 23V25H12.5V23H8.5ZM20.5 23V25H24.5V23H20.5Z" fill="url(#paint0_linear_951_5079)"/>
<defs>
<linearGradient id="paint0_linear_951_5079" x1="5" y1="3" x2="27" y2="29" gradientUnits="userSpaceOnUse">
<stop offset="0.128293" stop-color="#21209C"/>
<stop offset="1" stop-color="#FDB827"/>
</linearGradient>
</defs>
</svg>
