<svg width="16" height="20" viewBox="0 0 16 20" fill="none" xmlns="http://www.w3.org/2000/svg">
<path d="M7 15H9V9H7V15ZM8 7C8.28333 7 8.521 6.904 8.713 6.712C8.905 6.52 9.00067 6.28267 9 6C9 5.71667 8.904 5.47933 8.712 5.288C8.52 5.09667 8.28267 5.00067 8 5C7.71667 5 7.47933 5.096 7.288 5.288C7.09667 5.48 7.00067 5.71733 7 6C7 6.28333 7.096 6.521 7.288 6.713C7.48 6.905 7.71733 7.00067 8 7ZM8 20C5.68333 19.4167 3.77067 18.0873 2.262 16.012C0.753334 13.9367 -0.000666225 11.6327 4.41696e-07 9.1V3L8 0L16 3V9.1C16 11.6333 15.246 13.9377 13.738 16.013C12.23 18.0883 10.3173 19.4173 8 20Z" fill="url(#paint0_linear_858_1629)"/>
<defs>
<linearGradient id="paint0_linear_858_1629" x1="-2" y1="1" x2="16" y2="20" gradientUnits="userSpaceOnUse">
<stop offset="0.0582711" stop-color="#21209C"/>
<stop offset="0.939119" stop-color="#FDB827"/>
</linearGradient>
</defs>
</svg>
