<svg width="60" height="60" viewBox="0 0 60 60" fill="none" xmlns="http://www.w3.org/2000/svg">
<path d="M51.8666 26.1498L51.8549 26.1029L45.2807 9.39783C44.9877 8.45447 44.1147 7.80408 43.1245 7.80408H16.476C15.4799 7.80408 14.5952 8.46619 14.3139 9.42127L8.16743 25.9564L8.14985 25.9974L8.13813 26.0443C8.06196 26.3314 8.03853 26.6244 8.07954 26.9115C8.07368 27.0052 8.06782 27.099 8.06782 27.1928V48.6322C8.06937 49.5766 8.4452 50.4818 9.11297 51.1496C9.78073 51.8173 10.686 52.1932 11.6303 52.1947H48.3803C50.3432 52.1947 51.9428 50.5951 51.9487 48.6322V27.1928C51.9487 27.1166 51.9487 27.0404 51.9428 26.976C51.9663 26.6888 51.9428 26.4135 51.8666 26.1498ZM34.5346 23.6302L34.517 24.5502C34.4702 27.181 32.6538 28.9506 29.9995 28.9506C28.7045 28.9506 27.5913 28.5345 26.7885 27.7435C25.9858 26.9525 25.5463 25.851 25.5229 24.5502L25.5053 23.6302H13.4467L18.1049 12.3041H41.4956L46.2827 23.6302H34.5346ZM12.562 28.1303H21.7788C23.2026 31.476 26.2319 33.4506 30.0053 33.4506C31.9799 33.4506 33.8139 32.8998 35.2963 31.8568C36.5971 30.9427 37.6108 29.6654 38.267 28.1303H47.437V47.6947H12.562V28.1303Z" fill="url(#paint0_linear_423_1405)"/>
<defs>
<linearGradient id="paint0_linear_423_1405" x1="7.49988" y1="7.50134" x2="52.4999" y2="52.5013" gradientUnits="userSpaceOnUse">
<stop offset="0.227818" stop-color="#21209C"/>
<stop offset="1" stop-color="#FDB827"/>
</linearGradient>
</defs>
</svg>
